{
    "asset" : {
        "generator" : "Khronos glTF Blender I/O v0.9.36",
        "version" : "2.0"
    },
    "scene" : 0,
    "scenes" : [
        {
            "name" : "Scene",
            "nodes" : [
                0,
                1,
                2,
                3,
                4,
                5,
                6
            ]
        }
    ],
    "nodes" : [
        {
            "name" : "right",
            "rotation" : [
                -0.5,
                0.5,
                -0.5,
                -0.5
            ],
            "scale" : [
                2,
                2,
                2
            ],
            "translation" : [
                0,
                1.224226713180542,
                -0.8772180080413818
            ]
        },
        {
            "name" : "top",
            "rotation" : [
                0,
                -0.7071067690849304,
                0,
                0.7071067690849304
            ],
            "scale" : [
                2,
                2,
                2
            ],
            "translation" : [
                2.9850940704345703,
                0,
                -0.8772180080413818
            ]
        },
        {
            "mesh" : 0,
            "name" : "body",
            "translation" : [
                -0.0003463526372797787,
                1.231621265411377,
                -0.6639360189437866
            ]
        },
        {
            "mesh" : 1,
            "name" : "FR-wheel",
            "translation" : [
                -1.253656268119812,
                0.5872973799705505,
                1.7191448211669922
            ]
        },
        {
            "mesh" : 2,
            "name" : "RR-wheel",
            "translation" : [
                -1.253656268119812,
                0.5872973799705505,
                -2.791032314300537
            ]
        },
        {
            "mesh" : 3,
            "name" : "RL-wheel",
            "translation" : [
                1.253656268119812,
                0.5872973799705505,
                -2.791032314300537
            ]
        },
        {
            "mesh" : 4,
            "name" : "FL-wheel",
            "translation" : [
                1.253656268119812,
                0.5872973799705505,
                1.7191448211669922
            ]
        }
    ],
    "materials" : [
        {
            "doubleSided" : true,
            "name" : "car",
            "pbrMetallicRoughness" : {
                "baseColorFactor" : [
                    0.4019685983657837,
                    0.0026053795590996742,
                    0,
                    1
                ],
                "metallicFactor" : 0,
                "roughnessFactor" : 0.4000000059604645
            }
        },
        {
            "doubleSided" : true,
            "name" : "wheels",
            "pbrMetallicRoughness" : {
                "baseColorFactor" : [
                    0.005605394020676613,
                    0.005605393089354038,
                    0.005605394020676613,
                    1
                ],
                "metallicFactor" : 0,
                "roughnessFactor" : 0.5
            }
        }
    ],
    "meshes" : [
        {
            "name" : "body",
            "primitives" : [
                {
                    "attributes" : {
                        "POSITION" : 0,
                        "NORMAL" : 1,
                        "TEXCOORD_0" : 2
                    },
                    "indices" : 3,
                    "material" : 0
                }
            ]
        },
        {
            "name" : "wheel_FL",
            "primitives" : [
                {
                    "attributes" : {
                        "POSITION" : 4,
                        "NORMAL" : 5,
                        "TEXCOORD_0" : 6
                    },
                    "indices" : 7,
                    "material" : 1
                }
            ]
        },
        {
            "name" : "wheel_FL.001",
            "primitives" : [
                {
                    "attributes" : {
                        "POSITION" : 8,
                        "NORMAL" : 9,
                        "TEXCOORD_0" : 10
                    },
                    "indices" : 7,
                    "material" : 1
                }
            ]
        },
        {
            "name" : "wheel_FL.002",
            "primitives" : [
                {
                    "attributes" : {
                        "POSITION" : 11,
                        "NORMAL" : 12,
                        "TEXCOORD_0" : 13
                    },
                    "indices" : 14,
                    "material" : 1
                }
            ]
        },
        {
            "name" : "wheel_FL.003",
            "primitives" : [
                {
                    "attributes" : {
                        "POSITION" : 15,
                        "NORMAL" : 16,
                        "TEXCOORD_0" : 17
                    },
                    "indices" : 14,
                    "material" : 1
                }
            ]
        }
    ],
    "accessors" : [
        {
            "bufferView" : 0,
            "componentType" : 5126,
            "count" : 1657,
            "max" : [
                1.2918152809143066,
                1.4127836227416992,
                3.5947327613830566
            ],
            "min" : [
                -1.3001850843429565,
                -0.6198295950889587,
                -4.000998497009277
            ],
            "type" : "VEC3"
        },
        {
            "bufferView" : 1,
            "componentType" : 5126,
            "count" : 1657,
            "type" : "VEC3"
        },
        {
            "bufferView" : 2,
            "componentType" : 5126,
            "count" : 1657,
            "type" : "VEC2"
        },
        {
            "bufferView" : 3,
            "componentType" : 5123,
            "count" : 2778,
            "type" : "SCALAR"
        },
        {
            "bufferView" : 4,
            "componentType" : 5126,
            "count" : 96,
            "max" : [
                0.44631290435791016,
                0.5950835347175598,
                0.595083475112915
            ],
            "min" : [
                1.1920928955078125e-07,
                -0.5950835943222046,
                -0.595083475112915
            ],
            "type" : "VEC3"
        },
        {
            "bufferView" : 5,
            "componentType" : 5126,
            "count" : 96,
            "type" : "VEC3"
        },
        {
            "bufferView" : 6,
            "componentType" : 5126,
            "count" : 96,
            "type" : "VEC2"
        },
        {
            "bufferView" : 7,
            "componentType" : 5123,
            "count" : 180,
            "type" : "SCALAR"
        },
        {
            "bufferView" : 8,
            "componentType" : 5126,
            "count" : 96,
            "max" : [
                0.44631290435791016,
                0.5950835347175598,
                0.595083475112915
            ],
            "min" : [
                1.1920928955078125e-07,
                -0.5950835943222046,
                -0.5950837135314941
            ],
            "type" : "VEC3"
        },
        {
            "bufferView" : 9,
            "componentType" : 5126,
            "count" : 96,
            "type" : "VEC3"
        },
        {
            "bufferView" : 10,
            "componentType" : 5126,
            "count" : 96,
            "type" : "VEC2"
        },
        {
            "bufferView" : 11,
            "componentType" : 5126,
            "count" : 96,
            "max" : [
                -1.1920928955078125e-07,
                0.5950834155082703,
                0.595083475112915
            ],
            "min" : [
                -0.44631290435791016,
                -0.5950837731361389,
                -0.595083475112915
            ],
            "type" : "VEC3"
        },
        {
            "bufferView" : 12,
            "componentType" : 5126,
            "count" : 96,
            "type" : "VEC3"
        },
        {
            "bufferView" : 13,
            "componentType" : 5126,
            "count" : 96,
            "type" : "VEC2"
        },
        {
            "bufferView" : 14,
            "componentType" : 5123,
            "count" : 180,
            "type" : "SCALAR"
        },
        {
            "bufferView" : 15,
            "componentType" : 5126,
            "count" : 96,
            "max" : [
                -1.1920928955078125e-07,
                0.5950834155082703,
                0.595083475112915
            ],
            "min" : [
                -0.44631290435791016,
                -0.5950837731361389,
                -0.595083475112915
            ],
            "type" : "VEC3"
        },
        {
            "bufferView" : 16,
            "componentType" : 5126,
            "count" : 96,
            "type" : "VEC3"
        },
        {
            "bufferView" : 17,
            "componentType" : 5126,
            "count" : 96,
            "type" : "VEC2"
        }
    ],
    "bufferViews" : [
        {
            "buffer" : 0,
            "byteLength" : 19884,
            "byteOffset" : 0
        },
        {
            "buffer" : 0,
            "byteLength" : 19884,
            "byteOffset" : 19884
        },
        {
            "buffer" : 0,
            "byteLength" : 13256,
            "byteOffset" : 39768
        },
        {
            "buffer" : 0,
            "byteLength" : 5556,
            "byteOffset" : 53024
        },
        {
            "buffer" : 0,
            "byteLength" : 1152,
            "byteOffset" : 58580
        },
        {
            "buffer" : 0,
            "byteLength" : 1152,
            "byteOffset" : 59732
        },
        {
            "buffer" : 0,
            "byteLength" : 768,
            "byteOffset" : 60884
        },
        {
            "buffer" : 0,
            "byteLength" : 360,
            "byteOffset" : 61652
        },
        {
            "buffer" : 0,
            "byteLength" : 1152,
            "byteOffset" : 62012
        },
        {
            "buffer" : 0,
            "byteLength" : 1152,
            "byteOffset" : 63164
        },
        {
            "buffer" : 0,
            "byteLength" : 768,
            "byteOffset" : 64316
        },
        {
            "buffer" : 0,
            "byteLength" : 1152,
            "byteOffset" : 65084
        },
        {
            "buffer" : 0,
            "byteLength" : 1152,
            "byteOffset" : 66236
        },
        {
            "buffer" : 0,
            "byteLength" : 768,
            "byteOffset" : 67388
        },
        {
            "buffer" : 0,
            "byteLength" : 360,
            "byteOffset" : 68156
        },
        {
            "buffer" : 0,
            "byteLength" : 1152,
            "byteOffset" : 68516
        },
        {
            "buffer" : 0,
            "byteLength" : 1152,
            "byteOffset" : 69668
        },
        {
            "buffer" : 0,
            "byteLength" : 768,
            "byteOffset" : 70820
        }
    ],
    "buffers" : [
        {
            "byteLength" : 71588,
            "uri" : "data:application/octet-stream;base64,"
        }
    ]
}
